<svg width="21" height="35" viewBox="0 0 21 35" fill="none"
    xmlns="http://www.w3.org/2000/svg">
    <path d="M10.4355 21.7705L0.912641 17.5081L10.4355 33.7448V21.7705Z" fill="white"/>
    <path d="M5.82451 15.478L0.919889 17.3695L10.4392 21.53L19.9937 17.3695L15.0331 15.442M5.83782 15.2983L0.527344 17.3215L10.4905 34.3151L20.3878 17.3224L15.2301 15.3297M10.4355 21.7705L0.912641 17.5081L10.4355 33.7448V21.7705Z" stroke="white" stroke-width="0.827517" stroke-linejoin="round"/>
    <mask id="path-3-inside-1_1454_7108" fill="white">
        <path fill-rule="evenodd" clip-rule="evenodd" d="M6.38996 6.54647L10.5817 4.66995V4.69043L14.7735 6.56696L10.5817 0.705558V0.685059L6.38996 6.54647ZM13.6175 9.06258C15.1521 9.13007 15.8446 9.15208 16.364 9.15208L14.9951 7.63941H10.9134C7.75454 7.66289 5.52734 9.79765 5.52734 13.4392C5.52734 16.8783 7.71199 19.0145 10.5452 19.0145C12.9235 19.0145 15.5644 17.2613 15.5644 13.2602C15.5644 11.6243 14.8499 10.0324 13.6175 9.15208V9.06258ZM10.5847 9.35309C12.7473 9.35309 13.657 11.4159 13.657 13.2602V13.2661C13.657 15.7383 12.3674 17.8261 10.6375 17.8261C8.81972 17.8261 7.63129 15.7383 7.63129 13.3556C7.63129 11.2868 8.42211 9.35309 10.5847 9.35309Z"/>
    </mask>
    <path fill-rule="evenodd" clip-rule="evenodd" d="M6.38996 6.54647L10.5817 4.66995V4.69043L14.7735 6.56696L10.5817 0.705558V0.685059L6.38996 6.54647ZM13.6175 9.06258C15.1521 9.13007 15.8446 9.15208 16.364 9.15208L14.9951 7.63941H10.9134C7.75454 7.66289 5.52734 9.79765 5.52734 13.4392C5.52734 16.8783 7.71199 19.0145 10.5452 19.0145C12.9235 19.0145 15.5644 17.2613 15.5644 13.2602C15.5644 11.6243 14.8499 10.0324 13.6175 9.15208V9.06258ZM10.5847 9.35309C12.7473 9.35309 13.657 11.4159 13.657 13.2602V13.2661C13.657 15.7383 12.3674 17.8261 10.6375 17.8261C8.81972 17.8261 7.63129 15.7383 7.63129 13.3556C7.63129 11.2868 8.42211 9.35309 10.5847 9.35309Z" fill="white"/>
    <path d="M10.5818 4.66995H10.6753V4.52566L10.5436 4.58462L10.5818 4.66995ZM6.39 6.54647L6.31395 6.49209L6.11318 6.77283L6.4282 6.63181L6.39 6.54647ZM10.5818 4.69043H10.4883V4.75101L10.5436 4.77576L10.5818 4.69043ZM14.7735 6.56696L14.7353 6.65229L15.0503 6.79331L14.8496 6.51258L14.7735 6.56696ZM10.5818 0.705558H10.4883V0.735548L10.5057 0.759941L10.5818 0.705558ZM10.5818 0.685059H10.6753V0.393611L10.5057 0.630675L10.5818 0.685059ZM16.3641 9.15208V9.24557H16.5748L16.4334 9.08935L16.3641 9.15208ZM13.6175 9.06258L13.6216 8.96918L13.524 8.96489V9.06258H13.6175ZM14.9952 7.63941L15.0645 7.57668L15.0367 7.54592H14.9952V7.63941ZM10.9135 7.63941V7.54592L10.9128 7.54593L10.9135 7.63941ZM13.6175 9.15208H13.524V9.20019L13.5632 9.22816L13.6175 9.15208ZM10.5436 4.58462L6.3518 6.46114L6.4282 6.63181L10.62 4.75528L10.5436 4.58462ZM10.6753 4.69043V4.66995H10.4883V4.69043H10.6753ZM14.8117 6.48163L10.62 4.6051L10.5436 4.77576L14.7353 6.65229L14.8117 6.48163ZM10.5057 0.759941L14.6975 6.62135L14.8496 6.51258L10.6578 0.651175L10.5057 0.759941ZM10.4883 0.685059V0.705558H10.6753V0.685059H10.4883ZM6.46604 6.60086L10.6578 0.739442L10.5057 0.630675L6.31395 6.49209L6.46604 6.60086ZM16.3641 9.05859C15.847 9.05859 15.1565 9.03668 13.6216 8.96918L13.6134 9.15598C15.1478 9.22346 15.8423 9.24557 16.3641 9.24557V9.05859ZM14.9259 7.70215L16.2947 9.21481L16.4334 9.08935L15.0645 7.57668L14.9259 7.70215ZM10.9135 7.7329H14.9952V7.54592H10.9135V7.7329ZM5.62088 13.4392C5.62088 11.6377 6.17145 10.2184 7.10331 9.24725C8.03502 8.27623 9.35612 7.74448 10.9142 7.7329L10.9128 7.54593C9.31194 7.55782 7.93999 8.1052 6.96839 9.1178C5.99693 10.1302 5.4339 11.5992 5.4339 13.4392H5.62088ZM10.5452 18.921C9.15299 18.921 7.92379 18.3966 7.04218 17.4527C6.16037 16.5086 5.62088 15.1387 5.62088 13.4392H5.4339C5.4339 15.1788 5.98672 16.5966 6.90553 17.5803C7.82455 18.5643 9.10427 19.108 10.5452 19.108V18.921ZM15.471 13.2602C15.471 15.239 14.8185 16.6524 13.8813 17.571C12.9427 18.4908 11.7121 18.921 10.5452 18.921V19.108C11.7566 19.108 13.0356 18.6615 14.0121 17.7045C14.9899 16.7462 15.6579 15.2825 15.6579 13.2602H15.471ZM13.5632 9.22816C14.7668 10.0879 15.471 11.6489 15.471 13.2602H15.6579C15.6579 11.5997 14.933 9.97688 13.6718 9.07601L13.5632 9.22816ZM13.524 9.06258V9.15208H13.711V9.06258H13.524ZM13.7505 13.2602C13.7505 12.3247 13.5202 11.3285 13.0097 10.5632C12.4968 9.79422 11.7011 9.2596 10.5848 9.2596V9.44658C11.6311 9.44658 12.3715 9.94339 12.8541 10.6669C13.3391 11.3941 13.5636 12.3515 13.5636 13.2602H13.7505ZM13.7505 13.2661V13.2602H13.5636V13.2661H13.7505ZM10.6376 17.9196C11.544 17.9196 12.3247 17.3722 12.8745 16.524C13.4244 15.6756 13.7505 14.5173 13.7505 13.2661H13.5636C13.5636 14.4871 13.2449 15.6088 12.7176 16.4223C12.1901 17.2361 11.4611 17.7326 10.6376 17.7326V17.9196ZM7.53784 13.3556C7.53784 14.5611 7.83826 15.6971 8.37402 16.5347C8.91029 17.3732 9.68815 17.9196 10.6376 17.9196V17.7326C9.7692 17.7326 9.04393 17.2351 8.53153 16.434C8.01862 15.6321 7.72483 14.5328 7.72483 13.3556H7.53784ZM10.5848 9.2596C9.46994 9.2596 8.70238 9.76072 8.21799 10.5287C7.73701 11.2912 7.53784 12.3116 7.53784 13.3556H7.72483C7.72483 12.3308 7.92107 11.3499 8.37614 10.6284C8.82782 9.91233 9.53697 9.44658 10.5848 9.44658V9.2596Z" fill="white" mask="url(#path-3-inside-1_1454_7108)"/>
</svg>
